<?xml version="1.0" encoding="utf-8"?>
 <!DOCTYPE svg PUBLIC "-//W3C//DTD SVG 20010904//EN" "http://www.w3.org/TR/2001/REC-SVG-20010904/DTD/svg10.dtd">
<svg class="Qr-item-svg" width="100%" height="100%" viewBox="-6.6 -6.6 46.2 46.2" fill="white" xmlns="http://www.w3.org/2000/svg" xmlns:xlink="http://www.w3.org/1999/xlink"><circle opacity="0.95" fill="#000000" cx="0.5" cy="9.5" r="0.34086494770233194"></circle><circle opacity="0.95" fill="#000000" cx="0.5" cy="10.5" r="0.48567116769547325"></circle><circle opacity="0.95" fill="#000000" cx="0.5" cy="12.5" r="0.2933233239026063"></circle><circle opacity="0.95" fill="#000000" cx="0.5" cy="14.5" r="0.16602820644718794"></circle><circle opacity="0.95" fill="#000000" cx="0.5" cy="18.5" r="0.41914075360082304"></circle><circle opacity="0.95" fill="#000000" cx="0.5" cy="19.5" r="0.23894182956104254"></circle><circle opacity="0.95" fill="#000000" cx="0.5" cy="21.5" r="0.21374933556241427"></circle><circle opacity="0.95" fill="#000000" cx="0.5" cy="23.5" r="0.3983626543209876"></circle><circle opacity="0.95" fill="#000000" cx="1.5" cy="9.5" r="0.2768404278120713"></circle><circle opacity="0.95" fill="#000000" cx="1.5" cy="10.5" r="0.28861166838134433"></circle><circle opacity="0.95" fill="#000000" cx="1.5" cy="11.5" r="0.2279202031893004"></circle><circle opacity="0.95" fill="#000000" cx="1.5" cy="15.5" r="0.21160245198902605"></circle><circle opacity="0.95" fill="#000000" cx="1.5" cy="18.5" r="0.1951985382373114"></circle><circle opacity="0.95" fill="#000000" cx="1.5" cy="20.5" r="0.38239673353909465"></circle><circle opacity="0.95" fill="#000000" cx="1.5" cy="21.5" r="0.18281123542524005"></circle><circle opacity="0.95" fill="#000000" cx="1.5" cy="22.5" r="0.40809327846364885"></circle><circle opacity="0.95" fill="#000000" cx="1.5" cy="24.5" r="0.3313755787037037"></circle><circle opacity="0.95" fill="#000000" cx="2.5" cy="8.5" r="0.3300501114540466"></circle><circle opacity="0.95" fill="#000000" cx="2.5" cy="10.5" r="0.39687922239368995"></circle><circle opacity="0.95" fill="#000000" cx="2.5" cy="12.5" r="0.21444007201646093"></circle><circle opacity="0.95" fill="#000000" cx="2.5" cy="14.5" r="0.45790241340877913"></circle><circle opacity="0.95" fill="#000000" cx="2.5" cy="15.5" r="0.3011397033607681"></circle><circle opacity="0.95" fill="#000000" cx="2.5" cy="16.5" r="0.1711735468106996"></circle><circle opacity="0.95" fill="#000000" cx="2.5" cy="20.5" r="0.3709514746227709"></circle><circle opacity="0.95" fill="#000000" cx="2.5" cy="21.5" r="0.2604580546982167"></circle><circle opacity="0.95" fill="#000000" cx="2.5" cy="22.5" r="0.34115933641975305"></circle><circle fill="#000000" cx="3.5" cy="3.5" r="1.5"></circle><circle fill="none" stroke-width="1" stroke="#000000" cx="3.5" cy="3.5" r="3"></circle><circle fill="#000000" cx="3.5" cy="8.5" r="0.2087806284293553" opacity="0.95"></circle><circle fill="#000000" cx="3.5" cy="11.5" r="0.414417609739369" opacity="0.95"></circle><circle fill="#000000" cx="3.5" cy="12.5" r="0.19398077417695475" opacity="0.95"></circle><circle fill="#000000" cx="3.5" cy="15.5" r="0.4459732081618656" opacity="0.95"></circle><circle opacity="0.95" fill="#000000" cx="3.5" cy="18.5" r="0.2326017018175583"></circle><circle opacity="0.95" fill="#000000" cx="3.5" cy="19.5" r="0.20422119341563788"></circle><circle opacity="0.95" fill="#000000" cx="3.5" cy="21.5" r="0.21711254715363512"></circle><circle opacity="0.95" fill="#000000" cx="3.5" cy="23.5" r="0.18959366426611798"></circle><circle fill="#000000" cx="3.5" cy="29.5" r="1.5"></circle><circle fill="none" stroke-width="1" stroke="#000000" cx="3.5" cy="29.5" r="3"></circle><circle opacity="0.95" fill="#000000" cx="4.5" cy="8.5" r="0.1764639274691358"></circle><circle opacity="0.95" fill="#000000" cx="4.5" cy="9.5" r="0.33178197873799725"></circle><circle fill="#000000" cx="4.5" cy="14.5" r="0.4249768304183813" opacity="0.95"></circle><circle fill="#000000" cx="4.5" cy="15.5" r="0.25029230967078187" opacity="0.95"></circle><circle fill="#000000" cx="4.5" cy="16.5" r="0.2595648362482853" opacity="0.95"></circle><circle fill="#000000" cx="4.5" cy="17.5" r="0.4083345336076818" opacity="0.95"></circle><circle fill="#000000" cx="4.5" cy="20.5" r="0.23028967335390949" opacity="0.95"></circle><circle fill="#000000" cx="4.5" cy="23.5" r="0.4750444530178326" opacity="0.95"></circle><circle opacity="0.95" fill="#000000" cx="4.5" cy="24.5" r="0.27925010716735255"></circle><circle opacity="0.95" fill="#000000" cx="5.5" cy="8.5" r="0.25603935185185184"></circle><circle opacity="0.95" fill="#000000" cx="5.5" cy="9.5" r="0.44780416237997256"></circle><circle opacity="0.95" fill="#000000" cx="5.5" cy="17.5" r="0.17730688443072704"></circle><circle opacity="0.95" fill="#000000" cx="5.5" cy="19.5" r="0.46712467849794237"></circle><circle opacity="0.95" fill="#000000" cx="5.5" cy="21.5" r="0.3174272976680384"></circle><circle opacity="0.95" fill="#000000" cx="5.5" cy="24.5" r="0.24208819873113854"></circle><circle opacity="0.95" fill="#000000" cx="6.5" cy="8.5" r="0.4"></circle><circle opacity="0.95" fill="#000000" cx="6.5" cy="10.5" r="0.4"></circle><circle opacity="0.95" fill="#000000" cx="6.5" cy="12.5" r="0.4"></circle><circle opacity="0.95" fill="#000000" cx="6.5" cy="14.5" r="0.4"></circle><circle opacity="0.95" fill="#000000" cx="6.5" cy="16.5" r="0.4"></circle><circle opacity="0.95" fill="#000000" cx="6.5" cy="18.5" r="0.4"></circle><circle opacity="0.95" fill="#000000" cx="6.5" cy="20.5" r="0.4"></circle><circle opacity="0.95" fill="#000000" cx="6.5" cy="22.5" r="0.4"></circle><circle opacity="0.95" fill="#000000" cx="6.5" cy="24.5" r="0.4"></circle><circle opacity="0.95" fill="#000000" cx="7.5" cy="8.5" r="0.3331289866255144"></circle><circle opacity="0.95" fill="#000000" cx="7.5" cy="16.5" r="0.22349719221536352"></circle><circle opacity="0.95" fill="#000000" cx="7.5" cy="19.5" r="0.27817738340192044"></circle><circle opacity="0.95" fill="#000000" cx="7.5" cy="20.5" r="0.3286356095679012"></circle><circle opacity="0.95" fill="#000000" cx="7.5" cy="21.5" r="0.3055971793552812"></circle><circle opacity="0.95" fill="#000000" cx="7.5" cy="22.5" r="0.425157771776406"></circle><circle opacity="0.95" fill="#000000" cx="7.5" cy="24.5" r="0.2582278806584362"></circle><circle opacity="0.95" fill="#000000" cx="8.5" cy="0.5" r="0.36831059242112485"></circle><circle opacity="0.95" fill="#000000" cx="8.5" cy="2.5" r="0.48761269718792866"></circle><circle opacity="0.95" fill="#000000" cx="8.5" cy="3.5" r="0.26148913323045264"></circle><circle opacity="0.95" fill="#000000" cx="8.5" cy="4.5" r="0.2162207647462277"></circle><circle opacity="0.95" fill="#000000" cx="8.5" cy="5.5" r="0.2701254929698217"></circle><circle opacity="0.95" fill="#000000" cx="8.5" cy="6.5" r="0.4"></circle><circle opacity="0.95" fill="#000000" cx="8.5" cy="9.5" r="0.4780027006172839"></circle><circle opacity="0.95" fill="#000000" cx="8.5" cy="10.5" r="0.32391102966392316"></circle><circle opacity="0.95" fill="#000000" cx="8.5" cy="11.5" r="0.24727949245541836"></circle><circle opacity="0.95" fill="#000000" cx="8.5" cy="13.5" r="0.3773519161522634"></circle><circle opacity="0.95" fill="#000000" cx="8.5" cy="14.5" r="0.4959647205075446"></circle><circle opacity="0.95" fill="#000000" cx="8.5" cy="16.5" r="0.22365802897805212"></circle><circle opacity="0.95" fill="#000000" cx="8.5" cy="17.5" r="0.43412011316872423"></circle><circle opacity="0.95" fill="#000000" cx="8.5" cy="19.5" r="0.20196517061042524"></circle><circle opacity="0.95" fill="#000000" cx="8.5" cy="22.5" r="0.3388444358710562"></circle><circle opacity="0.95" fill="#000000" cx="8.5" cy="23.5" r="0.452890625"></circle><circle opacity="0.95" fill="#000000" cx="8.5" cy="24.5" r="0.2514957133058985"></circle><circle opacity="0.95" fill="#000000" cx="8.5" cy="26.5" r="0.397422046467764"></circle><circle opacity="0.95" fill="#000000" cx="8.5" cy="27.5" r="0.23824678497942386"></circle><circle opacity="0.95" fill="#000000" cx="8.5" cy="28.5" r="0.4491396819272976"></circle><circle opacity="0.95" fill="#000000" cx="8.5" cy="29.5" r="0.2039741941015089"></circle><circle opacity="0.95" fill="#000000" cx="8.5" cy="30.5" r="0.2647719264403292"></circle><circle opacity="0.95" fill="#000000" cx="9.5" cy="11.5" r="0.2644804098079561"></circle><circle opacity="0.95" fill="#000000" cx="9.5" cy="12.5" r="0.23308421210562413"></circle><circle opacity="0.95" fill="#000000" cx="9.5" cy="13.5" r="0.3370493827160494"></circle><circle opacity="0.95" fill="#000000" cx="9.5" cy="17.5" r="0.17210123028120713"></circle><circle opacity="0.95" fill="#000000" cx="9.5" cy="18.5" r="0.28933543381344307"></circle><circle opacity="0.95" fill="#000000" cx="9.5" cy="19.5" r="0.2596624871399177"></circle><circle opacity="0.95" fill="#000000" cx="9.5" cy="20.5" r="0.31158547668038405"></circle><circle opacity="0.95" fill="#000000" cx="9.5" cy="22.5" r="0.17731119255829905"></circle><circle opacity="0.95" fill="#000000" cx="9.5" cy="23.5" r="0.1721945730452675"></circle><circle opacity="0.95" fill="#000000" cx="9.5" cy="26.5" r="0.4875164823388203"></circle><circle opacity="0.95" fill="#000000" cx="9.5" cy="27.5" r="0.37159482167352537"></circle><circle opacity="0.95" fill="#000000" cx="9.5" cy="29.5" r="0.2142289737654321"></circle><circle opacity="0.95" fill="#000000" cx="9.5" cy="30.5" r="0.1694775805898491"></circle><circle opacity="0.95" fill="#000000" cx="9.5" cy="32.5" r="0.34176965449245544"></circle><circle opacity="0.95" fill="#000000" cx="10.5" cy="0.5" r="0.19034902263374487"></circle><circle opacity="0.95" fill="#000000" cx="10.5" cy="2.5" r="0.16705210476680385"></circle><circle opacity="0.95" fill="#000000" cx="10.5" cy="5.5" r="0.2274190243484225"></circle><circle opacity="0.95" fill="#000000" cx="10.5" cy="6.5" r="0.4"></circle><circle opacity="0.95" fill="#000000" cx="10.5" cy="10.5" r="0.2401380529835391"></circle><circle opacity="0.95" fill="#000000" cx="10.5" cy="11.5" r="0.28482338820301784"></circle><circle opacity="0.95" fill="#000000" cx="10.5" cy="13.5" r="0.16812626457475996"></circle><circle opacity="0.95" fill="#000000" cx="10.5" cy="14.5" r="0.16817939814814817"></circle><circle opacity="0.95" fill="#000000" cx="10.5" cy="15.5" r="0.32737476423182443"></circle><circle opacity="0.95" fill="#000000" cx="10.5" cy="17.5" r="0.30347470850480107"></circle><circle opacity="0.95" fill="#000000" cx="10.5" cy="20.5" r="0.44905639146090537"></circle><circle opacity="0.95" fill="#000000" cx="10.5" cy="22.5" r="0.4342895661865569"></circle><circle opacity="0.95" fill="#000000" cx="10.5" cy="25.5" r="0.4380476894718792"></circle><circle opacity="0.95" fill="#000000" cx="10.5" cy="26.5" r="0.21735236625514404"></circle><circle opacity="0.95" fill="#000000" cx="10.5" cy="28.5" r="0.4101511274005487"></circle><circle opacity="0.95" fill="#000000" cx="10.5" cy="30.5" r="0.37642854080932786"></circle><circle opacity="0.95" fill="#000000" cx="10.5" cy="31.5" r="0.2826506558641975"></circle><circle opacity="0.95" fill="#000000" cx="11.5" cy="0.5" r="0.39454278120713304"></circle><circle opacity="0.95" fill="#000000" cx="11.5" cy="1.5" r="0.2582005958504801"></circle><circle opacity="0.95" fill="#000000" cx="11.5" cy="2.5" r="0.44953459362139914"></circle><circle opacity="0.95" fill="#000000" cx="11.5" cy="3.5" r="0.19204786093964335"></circle><circle opacity="0.95" fill="#000000" cx="11.5" cy="8.5" r="0.2229471879286694"></circle><circle opacity="0.95" fill="#000000" cx="11.5" cy="9.5" r="0.1875875128600823"></circle><circle opacity="0.95" fill="#000000" cx="11.5" cy="11.5" r="0.2772496999314129"></circle><circle opacity="0.95" fill="#000000" cx="11.5" cy="13.5" r="0.4102516503772291"></circle><circle opacity="0.95" fill="#000000" cx="11.5" cy="15.5" r="0.3063927469135802"></circle><circle opacity="0.95" fill="#000000" cx="11.5" cy="17.5" r="0.454731631515775"></circle><circle opacity="0.95" fill="#000000" cx="11.5" cy="18.5" r="0.28969731652949243"></circle><circle opacity="0.95" fill="#000000" cx="11.5" cy="19.5" r="0.27553362911522633"></circle><circle opacity="0.95" fill="#000000" cx="11.5" cy="20.5" r="0.1940769890260631"></circle><circle opacity="0.95" fill="#000000" cx="11.5" cy="24.5" r="0.33586751971879286"></circle><circle opacity="0.95" fill="#000000" cx="11.5" cy="25.5" r="0.2345934927983539"></circle><circle opacity="0.95" fill="#000000" cx="11.5" cy="26.5" r="0.30486910579561044"></circle><circle opacity="0.95" fill="#000000" cx="11.5" cy="28.5" r="0.35334559327846365"></circle><circle opacity="0.95" fill="#000000" cx="11.5" cy="29.5" r="0.3231556712962963"></circle><circle opacity="0.95" fill="#000000" cx="11.5" cy="30.5" r="0.25669131515775034"></circle><circle opacity="0.95" fill="#000000" cx="11.5" cy="31.5" r="0.48171487054183815"></circle><circle opacity="0.95" fill="#000000" cx="11.5" cy="32.5" r="0.34580349794238685"></circle><circle opacity="0.95" fill="#000000" cx="12.5" cy="0.5" r="0.18912695044581618"></circle><circle opacity="0.95" fill="#000000" cx="12.5" cy="5.5" r="0.19055868484224966"></circle><circle opacity="0.95" fill="#000000" cx="12.5" cy="6.5" r="0.4"></circle><circle opacity="0.95" fill="#000000" cx="12.5" cy="7.5" r="0.4421203060699588"></circle><circle opacity="0.95" fill="#000000" cx="12.5" cy="9.5" r="0.24175934499314128"></circle><circle opacity="0.95" fill="#000000" cx="12.5" cy="12.5" r="0.28946036951303156"></circle><circle opacity="0.95" fill="#000000" cx="12.5" cy="14.5" r="0.4166894290123456"></circle><circle opacity="0.95" fill="#000000" cx="12.5" cy="16.5" r="0.219171832133059"></circle><circle opacity="0.95" fill="#000000" cx="12.5" cy="19.5" r="0.24800325788751715"></circle><circle opacity="0.95" fill="#000000" cx="12.5" cy="20.5" r="0.4090942001028806"></circle><circle opacity="0.95" fill="#000000" cx="12.5" cy="21.5" r="0.2609477451989026"></circle><circle opacity="0.95" fill="#000000" cx="12.5" cy="22.5" r="0.20577068329903977"></circle><circle opacity="0.95" fill="#000000" cx="12.5" cy="25.5" r="0.2239179526748971"></circle><circle opacity="0.95" fill="#000000" cx="12.5" cy="27.5" r="0.1716704175240055"></circle><circle opacity="0.95" fill="#000000" cx="12.5" cy="28.5" r="0.30234597908093275"></circle><circle opacity="0.95" fill="#000000" cx="12.5" cy="29.5" r="0.33574402006172843"></circle><circle opacity="0.95" fill="#000000" cx="13.5" cy="0.5" r="0.4259231824417009"></circle><circle opacity="0.95" fill="#000000" cx="13.5" cy="1.5" r="0.34231247856652947"></circle><circle opacity="0.95" fill="#000000" cx="13.5" cy="2.5" r="0.2141557355967078"></circle><circle opacity="0.95" fill="#000000" cx="13.5" cy="3.5" r="0.4932893732853223"></circle><circle opacity="0.95" fill="#000000" cx="13.5" cy="5.5" r="0.46525351508916324"></circle><circle opacity="0.95" fill="#000000" cx="13.5" cy="9.5" r="0.3337364326131687"></circle><circle opacity="0.95" fill="#000000" cx="13.5" cy="10.5" r="0.17835232338820303"></circle><circle opacity="0.95" fill="#000000" cx="13.5" cy="11.5" r="0.4757524219821673"></circle><circle opacity="0.95" fill="#000000" cx="13.5" cy="12.5" r="0.49906944444444445"></circle><circle opacity="0.95" fill="#000000" cx="13.5" cy="13.5" r="0.2906953660836763"></circle><circle opacity="0.95" fill="#000000" cx="13.5" cy="15.5" r="0.17839253257887516"></circle><circle opacity="0.95" fill="#000000" cx="13.5" cy="18.5" r="0.1797381044238683"></circle><circle opacity="0.95" fill="#000000" cx="13.5" cy="21.5" r="0.2999018347050755"></circle><circle opacity="0.95" fill="#000000" cx="13.5" cy="23.5" r="0.38275718021262"></circle><circle opacity="0.95" fill="#000000" cx="13.5" cy="24.5" r="0.18532574588477366"></circle><circle opacity="0.95" fill="#000000" cx="13.5" cy="25.5" r="0.3455550625857339"></circle><circle opacity="0.95" fill="#000000" cx="13.5" cy="26.5" r="0.22342969821673525"></circle><circle opacity="0.95" fill="#000000" cx="13.5" cy="31.5" r="0.3204157021604938"></circle><circle opacity="0.95" fill="#000000" cx="13.5" cy="32.5" r="0.23223838305898492"></circle><circle opacity="0.95" fill="#000000" cx="14.5" cy="3.5" r="0.1749934199245542"></circle><circle opacity="0.95" fill="#000000" cx="14.5" cy="4.5" r="0.38959130658436214"></circle><circle opacity="0.95" fill="#000000" cx="14.5" cy="5.5" r="0.43453512945816186"></circle><circle opacity="0.95" fill="#000000" cx="14.5" cy="6.5" r="0.4"></circle><circle opacity="0.95" fill="#000000" cx="14.5" cy="8.5" r="0.3770316786694101"></circle><circle opacity="0.95" fill="#000000" cx="14.5" cy="15.5" r="0.19743589248971194"></circle><circle opacity="0.95" fill="#000000" cx="14.5" cy="16.5" r="0.42202863511659805"></circle><circle opacity="0.95" fill="#000000" cx="14.5" cy="17.5" r="0.2991278077846365"></circle><circle opacity="0.95" fill="#000000" cx="14.5" cy="20.5" r="0.21853279320987654"></circle><circle opacity="0.95" fill="#000000" cx="14.5" cy="21.5" r="0.3343022333676269"></circle><circle opacity="0.95" fill="#000000" cx="14.5" cy="25.5" r="0.4158651406035665"></circle><circle opacity="0.95" fill="#000000" cx="14.5" cy="26.5" r="0.2574653420781893"></circle><circle opacity="0.95" fill="#000000" cx="14.5" cy="27.5" r="0.3109392575445816"></circle><circle fill="#000000" cx="14.5" cy="28.5" r="0.1968270104595336" opacity="0.95"></circle><circle fill="#000000" cx="14.5" cy="30.5" r="0.4538168724279835" opacity="0.95"></circle><circle fill="#000000" cx="14.5" cy="31.5" r="0.4915230409807956" opacity="0.95"></circle><circle fill="#000000" cx="15.5" cy="0.5" r="0.451596750685871" opacity="0.95"></circle><circle fill="#000000" cx="15.5" cy="1.5" r="0.2771707175925926" opacity="0.95"></circle><circle fill="#000000" cx="15.5" cy="2.5" r="0.3456369170096022" opacity="0.95"></circle><circle opacity="0.95" fill="#000000" cx="15.5" cy="7.5" r="0.3147576946159122"></circle><circle opacity="0.95" fill="#000000" cx="15.5" cy="8.5" r="0.2021102109053498"></circle><circle opacity="0.95" fill="#000000" cx="15.5" cy="9.5" r="0.34786421896433467"></circle><circle opacity="0.95" fill="#000000" cx="15.5" cy="10.5" r="0.2608931755829904"></circle><circle opacity="0.95" fill="#000000" cx="15.5" cy="11.5" r="0.3682186856995885"></circle><circle opacity="0.95" fill="#000000" cx="15.5" cy="14.5" r="0.3027882801783265"></circle><circle opacity="0.95" fill="#000000" cx="15.5" cy="15.5" r="0.42958652692043897"></circle><circle opacity="0.95" fill="#000000" cx="15.5" cy="18.5" r="0.245079475308642"></circle><circle opacity="0.95" fill="#000000" cx="15.5" cy="21.5" r="0.3499924339849108"></circle><circle opacity="0.95" fill="#000000" cx="15.5" cy="24.5" r="0.2904210819615912"></circle><circle opacity="0.95" fill="#000000" cx="15.5" cy="25.5" r="0.3072759130658436"></circle><circle opacity="0.95" fill="#000000" cx="15.5" cy="26.5" r="0.2940600137174211"></circle><circle opacity="0.95" fill="#000000" cx="15.5" cy="27.5" r="0.3179801740397805"></circle><circle opacity="0.95" fill="#000000" cx="15.5" cy="29.5" r="0.3593913323045267"></circle><circle opacity="0.95" fill="#000000" cx="15.5" cy="30.5" r="0.27457435270919067"></circle><circle opacity="0.95" fill="#000000" cx="16.5" cy="0.5" r="0.3168471364883402"></circle><circle opacity="0.95" fill="#000000" cx="16.5" cy="6.5" r="0.4"></circle><circle opacity="0.95" fill="#000000" cx="16.5" cy="10.5" r="0.20600906635802468"></circle><circle opacity="0.95" fill="#000000" cx="16.5" cy="13.5" r="0.43111878429355277"></circle><circle opacity="0.95" fill="#000000" cx="16.5" cy="15.5" r="0.4266053026406036"></circle><circle opacity="0.95" fill="#000000" cx="16.5" cy="16.5" r="0.32171244855967074"></circle><circle opacity="0.95" fill="#000000" cx="16.5" cy="17.5" r="0.2332766418038409"></circle><circle opacity="0.95" fill="#000000" cx="16.5" cy="22.5" r="0.45183800582990397"></circle><circle opacity="0.95" fill="#000000" cx="16.5" cy="24.5" r="0.17608481224279837"></circle><circle opacity="0.95" fill="#000000" cx="16.5" cy="25.5" r="0.4906312585733882"></circle><circle opacity="0.95" fill="#000000" cx="16.5" cy="27.5" r="0.19712857938957476"></circle><circle opacity="0.95" fill="#000000" cx="16.5" cy="28.5" r="0.24370949074074072"></circle><circle opacity="0.95" fill="#000000" cx="16.5" cy="29.5" r="0.3377659679355281"></circle><circle opacity="0.95" fill="#000000" cx="16.5" cy="32.5" r="0.4720603566529492"></circle><circle opacity="0.95" fill="#000000" cx="17.5" cy="0.5" r="0.32916981738683126"></circle><circle opacity="0.95" fill="#000000" cx="17.5" cy="5.5" r="0.24926410322359396"></circle><circle opacity="0.95" fill="#000000" cx="17.5" cy="7.5" r="0.4112166709533608"></circle><circle opacity="0.95" fill="#000000" cx="17.5" cy="8.5" r="0.2370491255144033"></circle><circle opacity="0.95" fill="#000000" cx="17.5" cy="12.5" r="0.36470899777091903"></circle><circle opacity="0.95" fill="#000000" cx="17.5" cy="13.5" r="0.4891808556241426"></circle><circle opacity="0.95" fill="#000000" cx="17.5" cy="18.5" r="0.44193074845679015"></circle><circle opacity="0.95" fill="#000000" cx="17.5" cy="19.5" r="0.48868398491083676"></circle><circle opacity="0.95" fill="#000000" cx="17.5" cy="20.5" r="0.17553624399862827"></circle><circle opacity="0.95" fill="#000000" cx="17.5" cy="21.5" r="0.4133980195473251"></circle><circle opacity="0.95" fill="#000000" cx="17.5" cy="23.5" r="0.4257723979766803"></circle><circle opacity="0.95" fill="#000000" cx="17.5" cy="25.5" r="0.27986616941015086"></circle><circle opacity="0.95" fill="#000000" cx="17.5" cy="26.5" r="0.2910342721193416"></circle><circle opacity="0.95" fill="#000000" cx="17.5" cy="27.5" r="0.3155575703017832"></circle><circle opacity="0.95" fill="#000000" cx="17.5" cy="29.5" r="0.27175396519204387"></circle><circle opacity="0.95" fill="#000000" cx="17.5" cy="30.5" r="0.21442283950617286"></circle><circle opacity="0.95" fill="#000000" cx="17.5" cy="31.5" r="0.29762283521947874"></circle><circle opacity="0.95" fill="#000000" cx="17.5" cy="32.5" r="0.2907829646776406"></circle><circle opacity="0.95" fill="#000000" cx="18.5" cy="3.5" r="0.32314705504115226"></circle><circle opacity="0.95" fill="#000000" cx="18.5" cy="4.5" r="0.17655152606310015"></circle><circle opacity="0.95" fill="#000000" cx="18.5" cy="5.5" r="0.47653650120027435"></circle><circle opacity="0.95" fill="#000000" cx="18.5" cy="6.5" r="0.4"></circle><circle opacity="0.95" fill="#000000" cx="18.5" cy="7.5" r="0.4217902520576131"></circle><circle opacity="0.95" fill="#000000" cx="18.5" cy="8.5" r="0.42692697616598074"></circle><circle opacity="0.95" fill="#000000" cx="18.5" cy="10.5" r="0.29859790809327846"></circle><circle opacity="0.95" fill="#000000" cx="18.5" cy="11.5" r="0.3149357638888889"></circle><circle opacity="0.95" fill="#000000" cx="18.5" cy="13.5" r="0.18333251886145405"></circle><circle opacity="0.95" fill="#000000" cx="18.5" cy="14.5" r="0.23155051868998627"></circle><circle opacity="0.95" fill="#000000" cx="18.5" cy="15.5" r="0.4771669238683127"></circle><circle opacity="0.95" fill="#000000" cx="18.5" cy="16.5" r="0.25535148748285325"></circle><circle opacity="0.95" fill="#000000" cx="18.5" cy="18.5" r="0.4149776663237311"></circle><circle opacity="0.95" fill="#000000" cx="18.5" cy="20.5" r="0.3780670653292181"></circle><circle opacity="0.95" fill="#000000" cx="18.5" cy="21.5" r="0.44756721536351163"></circle><circle opacity="0.95" fill="#000000" cx="18.5" cy="24.5" r="0.31846268432784636"></circle><circle opacity="0.95" fill="#000000" cx="18.5" cy="25.5" r="0.4922195216049382"></circle><circle opacity="0.95" fill="#000000" cx="18.5" cy="27.5" r="0.22956303583676269"></circle><circle opacity="0.95" fill="#000000" cx="18.5" cy="28.5" r="0.41658890603566534"></circle><circle opacity="0.95" fill="#000000" cx="18.5" cy="30.5" r="0.28920762602880656"></circle><circle opacity="0.95" fill="#000000" cx="19.5" cy="0.5" r="0.41092228223593963"></circle><circle opacity="0.95" fill="#000000" cx="19.5" cy="1.5" r="0.17893966478052126"></circle><circle opacity="0.95" fill="#000000" cx="19.5" cy="2.5" r="0.24361471193415637"></circle><circle opacity="0.95" fill="#000000" cx="19.5" cy="3.5" r="0.46122828789437587"></circle><circle opacity="0.95" fill="#000000" cx="19.5" cy="5.5" r="0.4150982938957476"></circle><circle opacity="0.95" fill="#000000" cx="19.5" cy="8.5" r="0.4950241126543209"></circle><circle opacity="0.95" fill="#000000" cx="19.5" cy="9.5" r="0.18506438614540466"></circle><circle opacity="0.95" fill="#000000" cx="19.5" cy="10.5" r="0.25964812671467763"></circle><circle opacity="0.95" fill="#000000" cx="19.5" cy="12.5" r="0.17801916152263375"></circle><circle opacity="0.95" fill="#000000" cx="19.5" cy="14.5" r="0.3920139103223594"></circle><circle opacity="0.95" fill="#000000" cx="19.5" cy="15.5" r="0.18717249657064472"></circle><circle opacity="0.95" fill="#000000" cx="19.5" cy="16.5" r="0.43718319187242793"></circle><circle opacity="0.95" fill="#000000" cx="19.5" cy="19.5" r="0.21666019375857337"></circle><circle opacity="0.95" fill="#000000" cx="19.5" cy="21.5" r="0.33725473679698215"></circle><circle opacity="0.95" fill="#000000" cx="19.5" cy="22.5" r="0.40709953703703705"></circle><circle opacity="0.95" fill="#000000" cx="19.5" cy="23.5" r="0.46858656978738"></circle><circle opacity="0.95" fill="#000000" cx="19.5" cy="26.5" r="0.17947818072702332"></circle><circle opacity="0.95" fill="#000000" cx="19.5" cy="27.5" r="0.22735153034979425"></circle><circle opacity="0.95" fill="#000000" cx="19.5" cy="28.5" r="0.2823763717421125"></circle><circle opacity="0.95" fill="#000000" cx="19.5" cy="29.5" r="0.1884261616941015"></circle><circle opacity="0.95" fill="#000000" cx="19.5" cy="30.5" r="0.3725225051440329"></circle><circle opacity="0.95" fill="#000000" cx="19.5" cy="31.5" r="0.4676129329561042"></circle><circle opacity="0.95" fill="#000000" cx="20.5" cy="0.5" r="0.1686820130315501"></circle><circle opacity="0.95" fill="#000000" cx="20.5" cy="1.5" r="0.31219579475308645"></circle><circle opacity="0.95" fill="#000000" cx="20.5" cy="3.5" r="0.4938795867626886"></circle><circle opacity="0.95" fill="#000000" cx="20.5" cy="4.5" r="0.25982906807270234"></circle><circle opacity="0.95" fill="#000000" cx="20.5" cy="6.5" r="0.4"></circle><circle opacity="0.95" fill="#000000" cx="20.5" cy="8.5" r="0.18595473251028807"></circle><circle opacity="0.95" fill="#000000" cx="20.5" cy="9.5" r="0.1657596664951989"></circle><circle opacity="0.95" fill="#000000" cx="20.5" cy="10.5" r="0.26645066015089164"></circle><circle opacity="0.95" fill="#000000" cx="20.5" cy="11.5" r="0.4683826517489712"></circle><circle opacity="0.95" fill="#000000" cx="20.5" cy="13.5" r="0.29283650548696843"></circle><circle opacity="0.95" fill="#000000" cx="20.5" cy="14.5" r="0.3281301225994513"></circle><circle opacity="0.95" fill="#000000" cx="20.5" cy="15.5" r="0.29406288580246914"></circle><circle opacity="0.95" fill="#000000" cx="20.5" cy="18.5" r="0.3446934370713306"></circle><circle opacity="0.95" fill="#000000" cx="20.5" cy="21.5" r="0.24945078875171467"></circle><circle opacity="0.95" fill="#000000" cx="20.5" cy="23.5" r="0.47257876800411525"></circle><circle opacity="0.95" fill="#000000" cx="20.5" cy="27.5" r="0.46091379458161863"></circle><circle opacity="0.95" fill="#000000" cx="20.5" cy="28.5" r="0.16999599194101508"></circle><circle opacity="0.95" fill="#000000" cx="20.5" cy="29.5" r="0.4735136316872428"></circle><circle opacity="0.95" fill="#000000" cx="21.5" cy="0.5" r="0.4460809113511659"></circle><circle opacity="0.95" fill="#000000" cx="21.5" cy="1.5" r="0.22934906550068587"></circle><circle opacity="0.95" fill="#000000" cx="21.5" cy="2.5" r="0.43645081018518517"></circle><circle opacity="0.95" fill="#000000" cx="21.5" cy="8.5" r="0.4397781207133059"></circle><circle opacity="0.95" fill="#000000" cx="21.5" cy="11.5" r="0.23209334276406035"></circle><circle opacity="0.95" fill="#000000" cx="21.5" cy="12.5" r="0.16597363683127572"></circle><circle opacity="0.95" fill="#000000" cx="21.5" cy="13.5" r="0.24658875600137176"></circle><circle opacity="0.95" fill="#000000" cx="21.5" cy="15.5" r="0.31781215706447186"></circle><circle opacity="0.95" fill="#000000" cx="21.5" cy="16.5" r="0.47166544495884777"></circle><circle opacity="0.95" fill="#000000" cx="21.5" cy="17.5" r="0.34109615054869685"></circle><circle opacity="0.95" fill="#000000" cx="21.5" cy="20.5" r="0.29108884173525373"></circle><circle opacity="0.95" fill="#000000" cx="21.5" cy="21.5" r="0.4881095679012345"></circle><circle opacity="0.95" fill="#000000" cx="21.5" cy="22.5" r="0.19288363768861455"></circle><circle opacity="0.95" fill="#000000" cx="21.5" cy="23.5" r="0.2915067301097394"></circle><circle opacity="0.95" fill="#000000" cx="21.5" cy="25.5" r="0.35488933899176955"></circle><circle opacity="0.95" fill="#000000" cx="21.5" cy="26.5" r="0.27653455075445815"></circle><circle opacity="0.95" fill="#000000" cx="21.5" cy="32.5" r="0.45864915552126195"></circle><circle opacity="0.95" fill="#000000" cx="22.5" cy="0.5" r="0.211588091563786"></circle><circle opacity="0.95" fill="#000000" cx="22.5" cy="2.5" r="0.39663222307956103"></circle><circle opacity="0.95" fill="#000000" cx="22.5" cy="4.5" r="0.26209945130315504"></circle><circle opacity="0.95" fill="#000000" cx="22.5" cy="5.5" r="0.19778915895061727"></circle><circle opacity="0.95" fill="#000000" cx="22.5" cy="6.5" r="0.4"></circle><circle opacity="0.95" fill="#000000" cx="22.5" cy="13.5" r="0.3577599879972565"></circle><circle opacity="0.95" fill="#000000" cx="22.5" cy="17.5" r="0.17644095078875172"></circle><circle opacity="0.95" fill="#000000" cx="22.5" cy="18.5" r="0.4530758744855967"></circle><circle opacity="0.95" fill="#000000" cx="22.5" cy="19.5" r="0.2995011788408779"></circle><circle opacity="0.95" fill="#000000" cx="22.5" cy="21.5" r="0.34125698731138543"></circle><circle opacity="0.95" fill="#000000" cx="22.5" cy="27.5" r="0.44703157150205763"></circle><circle opacity="0.95" fill="#000000" cx="22.5" cy="28.5" r="0.3614391289437585"></circle><circle opacity="0.95" fill="#000000" cx="22.5" cy="29.5" r="0.2261308942043896"></circle><circle opacity="0.95" fill="#000000" cx="22.5" cy="30.5" r="0.31923958333333335"></circle><circle opacity="0.95" fill="#000000" cx="22.5" cy="31.5" r="0.3481571716392318"></circle><circle opacity="0.95" fill="#000000" cx="23.5" cy="0.5" r="0.3056460048010974"></circle><circle opacity="0.95" fill="#000000" cx="23.5" cy="2.5" r="0.20928324331275722"></circle><circle opacity="0.95" fill="#000000" cx="23.5" cy="3.5" r="0.39923864026063094"></circle><circle opacity="0.95" fill="#000000" cx="23.5" cy="5.5" r="0.38438565243484224"></circle><circle opacity="0.95" fill="#000000" cx="23.5" cy="8.5" r="0.25674588477366256"></circle><circle opacity="0.95" fill="#000000" cx="23.5" cy="10.5" r="0.31926686814128946"></circle><circle opacity="0.95" fill="#000000" cx="23.5" cy="13.5" r="0.2669331704389575"></circle><circle opacity="0.95" fill="#000000" cx="23.5" cy="16.5" r="0.26621084104938275"></circle><circle opacity="0.95" fill="#000000" cx="23.5" cy="19.5" r="0.24782518861454045"></circle><circle opacity="0.95" fill="#000000" cx="23.5" cy="20.5" r="0.42787189214677634"></circle><circle opacity="0.95" fill="#000000" cx="23.5" cy="21.5" r="0.377261445473251"></circle><circle opacity="0.95" fill="#000000" cx="23.5" cy="22.5" r="0.32449693501371746"></circle><circle opacity="0.95" fill="#000000" cx="23.5" cy="23.5" r="0.3367851508916324"></circle><circle opacity="0.95" fill="#000000" cx="23.5" cy="24.5" r="0.3944810313786008"></circle><circle opacity="0.95" fill="#000000" cx="23.5" cy="25.5" r="0.35386544067215364"></circle><circle opacity="0.95" fill="#000000" cx="23.5" cy="27.5" r="0.4682562800068587"></circle><circle opacity="0.95" fill="#000000" cx="23.5" cy="28.5" r="0.45745293209876536"></circle><circle opacity="0.95" fill="#000000" cx="23.5" cy="29.5" r="0.47551403892318245"></circle><circle opacity="0.95" fill="#000000" cx="23.5" cy="30.5" r="0.29186861282578874"></circle><circle opacity="0.95" fill="#000000" cx="23.5" cy="31.5" r="0.3707604809670782"></circle><circle opacity="0.95" fill="#000000" cx="24.5" cy="0.5" r="0.4940260631001372"></circle><circle opacity="0.95" fill="#000000" cx="24.5" cy="2.5" r="0.2822054826817558"></circle><circle opacity="0.95" fill="#000000" cx="24.5" cy="3.5" r="0.2739870113168724"></circle><circle opacity="0.95" fill="#000000" cx="24.5" cy="6.5" r="0.4"></circle><circle opacity="0.95" fill="#000000" cx="24.5" cy="8.5" r="0.21398484653635116"></circle><circle opacity="0.95" fill="#000000" cx="24.5" cy="10.5" r="0.24385022290809327"></circle><circle opacity="0.95" fill="#000000" cx="24.5" cy="11.5" r="0.3067158564814815"></circle><circle opacity="0.95" fill="#000000" cx="24.5" cy="14.5" r="0.44497372256515777"></circle><circle opacity="0.95" fill="#000000" cx="24.5" cy="16.5" r="0.3163861668381344"></circle><circle opacity="0.95" fill="#000000" cx="24.5" cy="17.5" r="0.2735303497942387"></circle><circle opacity="0.95" fill="#000000" cx="24.5" cy="19.5" r="0.32157602451989026"></circle><circle opacity="0.95" fill="#000000" cx="24.5" cy="22.5" r="0.3043966478052126"></circle><circle opacity="0.95" fill="#000000" cx="24.5" cy="24.5" r="0.4"></circle><circle opacity="0.95" fill="#000000" cx="24.5" cy="25.5" r="0.4"></circle><circle opacity="0.95" fill="#000000" cx="24.5" cy="26.5" r="0.4"></circle><circle opacity="0.95" fill="#000000" cx="24.5" cy="27.5" r="0.4"></circle><circle opacity="0.95" fill="#000000" cx="24.5" cy="28.5" r="0.4"></circle><circle opacity="0.95" fill="#000000" cx="24.5" cy="31.5" r="0.3140138245884774"></circle><circle opacity="0.95" fill="#000000" cx="24.5" cy="32.5" r="0.318375085733882"></circle><circle opacity="0.95" fill="#000000" cx="25.5" cy="8.5" r="0.34746499914266116"></circle><circle opacity="0.95" fill="#000000" cx="25.5" cy="9.5" r="0.23274961419753087"></circle><circle opacity="0.95" fill="#000000" cx="25.5" cy="12.5" r="0.2399542395404664"></circle><circle opacity="0.95" fill="#000000" cx="25.5" cy="13.5" r="0.25017455418381346"></circle><circle opacity="0.95" fill="#000000" cx="25.5" cy="14.5" r="0.16932105195473252"></circle><circle opacity="0.95" fill="#000000" cx="25.5" cy="17.5" r="0.22589681927297667"></circle><circle opacity="0.95" fill="#000000" cx="25.5" cy="19.5" r="0.4871086462620027"></circle><circle opacity="0.95" fill="#000000" cx="25.5" cy="20.5" r="0.26331147119341564"></circle><circle opacity="0.95" fill="#000000" cx="25.5" cy="22.5" r="0.4157861582647462"></circle><circle opacity="0.95" fill="#000000" cx="25.5" cy="24.5" r="0.4"></circle><circle opacity="0.95" fill="#000000" cx="25.5" cy="28.5" r="0.4"></circle><circle opacity="0.95" fill="#000000" cx="25.5" cy="30.5" r="0.19285060871056242"></circle><circle opacity="0.95" fill="#000000" cx="25.5" cy="31.5" r="0.3193042052469136"></circle><circle opacity="0.95" fill="#000000" cx="25.5" cy="32.5" r="0.27920558984910837"></circle><circle opacity="0.95" fill="#000000" cx="26.5" cy="10.5" r="0.1769837748628258"></circle><circle opacity="0.95" fill="#000000" cx="26.5" cy="15.5" r="0.4768825874485596"></circle><circle opacity="0.95" fill="#000000" cx="26.5" cy="16.5" r="0.2907384473593964"></circle><circle opacity="0.95" fill="#000000" cx="26.5" cy="17.5" r="0.24409147805212622"></circle><circle opacity="0.95" fill="#000000" cx="26.5" cy="22.5" r="0.20562995113168725"></circle><circle opacity="0.95" fill="#000000" cx="26.5" cy="23.5" r="0.2549680641289438"></circle><circle opacity="0.95" fill="#000000" cx="26.5" cy="24.5" r="0.4"></circle><circle opacity="0.95" fill="#000000" cx="26.5" cy="26.5" r="0.4"></circle><circle opacity="0.95" fill="#000000" cx="26.5" cy="28.5" r="0.4"></circle><circle opacity="0.95" fill="#000000" cx="26.5" cy="30.5" r="0.198757051611797"></circle><circle opacity="0.95" fill="#000000" cx="26.5" cy="31.5" r="0.31512962962962965"></circle><circle opacity="0.95" fill="#000000" cx="27.5" cy="8.5" r="0.31147777349108363"></circle><circle opacity="0.95" fill="#000000" cx="27.5" cy="10.5" r="0.18056382887517147"></circle><circle opacity="0.95" fill="#000000" cx="27.5" cy="12.5" r="0.27496495627572015"></circle><circle opacity="0.95" fill="#000000" cx="27.5" cy="14.5" r="0.2648509087791495"></circle><circle opacity="0.95" fill="#000000" cx="27.5" cy="15.5" r="0.32909514317558297"></circle><circle opacity="0.95" fill="#000000" cx="27.5" cy="17.5" r="0.22471926440329218"></circle><circle opacity="0.95" fill="#000000" cx="27.5" cy="18.5" r="0.2546708033264746"></circle><circle opacity="0.95" fill="#000000" cx="27.5" cy="19.5" r="0.4489343278463649"></circle><circle opacity="0.95" fill="#000000" cx="27.5" cy="20.5" r="0.30397588734567904"></circle><circle opacity="0.95" fill="#000000" cx="27.5" cy="24.5" r="0.4"></circle><circle opacity="0.95" fill="#000000" cx="27.5" cy="28.5" r="0.4"></circle><circle opacity="0.95" fill="#000000" cx="27.5" cy="29.5" r="0.42052079046639224"></circle><circle opacity="0.95" fill="#000000" cx="27.5" cy="30.5" r="0.3446647162208505"></circle><circle opacity="0.95" fill="#000000" cx="27.5" cy="31.5" r="0.31731815843621397"></circle><circle opacity="0.95" fill="#000000" cx="27.5" cy="32.5" r="0.23198420353223592"></circle><circle opacity="0.95" fill="#000000" cx="28.5" cy="8.5" r="0.4908696416323731"></circle><circle opacity="0.95" fill="#000000" cx="28.5" cy="10.5" r="0.40432941100823044"></circle><circle opacity="0.95" fill="#000000" cx="28.5" cy="15.5" r="0.4986443758573388"></circle><circle opacity="0.95" fill="#000000" cx="28.5" cy="16.5" r="0.3571324374142661"></circle><circle opacity="0.95" fill="#000000" cx="28.5" cy="19.5" r="0.36959297839506167"></circle><circle opacity="0.95" fill="#000000" cx="28.5" cy="20.5" r="0.3550846407750343"></circle><circle opacity="0.95" fill="#000000" cx="28.5" cy="21.5" r="0.4180364368998628"></circle><circle opacity="0.95" fill="#000000" cx="28.5" cy="22.5" r="0.35269219393004114"></circle><circle opacity="0.95" fill="#000000" cx="28.5" cy="24.5" r="0.4"></circle><circle opacity="0.95" fill="#000000" cx="28.5" cy="25.5" r="0.4"></circle><circle opacity="0.95" fill="#000000" cx="28.5" cy="26.5" r="0.4"></circle><circle opacity="0.95" fill="#000000" cx="28.5" cy="27.5" r="0.4"></circle><circle opacity="0.95" fill="#000000" cx="28.5" cy="28.5" r="0.4"></circle><circle opacity="0.95" fill="#000000" cx="28.5" cy="29.5" r="0.27588833161865567"></circle><circle opacity="0.95" fill="#000000" cx="28.5" cy="32.5" r="0.47816497342249653"></circle><circle fill="#000000" cx="29.5" cy="3.5" r="1.5"></circle><circle fill="none" stroke-width="1" stroke="#000000" cx="29.5" cy="3.5" r="3"></circle><circle opacity="0.95" fill="#000000" cx="29.5" cy="8.5" r="0.493210390946502"></circle><circle opacity="0.95" fill="#000000" cx="29.5" cy="9.5" r="0.40063878172153633"></circle><circle opacity="0.95" fill="#000000" cx="29.5" cy="14.5" r="0.34210138031550064"></circle><circle opacity="0.95" fill="#000000" cx="29.5" cy="15.5" r="0.2607309027777778"></circle><circle opacity="0.95" fill="#000000" cx="29.5" cy="17.5" r="0.1989193244170096"></circle><circle opacity="0.95" fill="#000000" cx="29.5" cy="18.5" r="0.4844289909122085"></circle><circle fill="#000000" cx="29.5" cy="25.5" r="0.4648370627572016" opacity="0.95"></circle><circle fill="#000000" cx="29.5" cy="28.5" r="0.48031329303840875" opacity="0.95"></circle><circle fill="#000000" cx="29.5" cy="29.5" r="0.37473113854595336" opacity="0.95"></circle><circle fill="#000000" cx="29.5" cy="32.5" r="0.240112204218107" opacity="0.95"></circle><circle fill="#000000" cx="30.5" cy="8.5" r="0.3794040209190672" opacity="0.95"></circle><circle fill="#000000" cx="30.5" cy="9.5" r="0.48759115655006857" opacity="0.95"></circle><circle opacity="0.95" fill="#000000" cx="30.5" cy="12.5" r="0.3961396604938271"></circle><circle opacity="0.95" fill="#000000" cx="30.5" cy="13.5" r="0.3707748413923182"></circle><circle opacity="0.95" fill="#000000" cx="30.5" cy="15.5" r="0.29259237825788753"></circle><circle opacity="0.95" fill="#000000" cx="30.5" cy="16.5" r="0.40250276491769543"></circle><circle opacity="0.95" fill="#000000" cx="30.5" cy="18.5" r="0.2590090877914952"></circle><circle opacity="0.95" fill="#000000" cx="30.5" cy="20.5" r="0.2643181370027435"></circle><circle opacity="0.95" fill="#000000" cx="30.5" cy="21.5" r="0.39878485082304527"></circle><circle opacity="0.95" fill="#000000" cx="30.5" cy="24.5" r="0.18369009344993142"></circle><circle opacity="0.95" fill="#000000" cx="30.5" cy="25.5" r="0.20735176611796982"></circle><circle opacity="0.95" fill="#000000" cx="30.5" cy="26.5" r="0.1895692515432099"></circle><circle opacity="0.95" fill="#000000" cx="30.5" cy="27.5" r="0.28440119170096023"></circle><circle opacity="0.95" fill="#000000" cx="31.5" cy="9.5" r="0.26127659893689986"></circle><circle opacity="0.95" fill="#000000" cx="31.5" cy="11.5" r="0.24943930041152262"></circle><circle opacity="0.95" fill="#000000" cx="31.5" cy="12.5" r="0.3657257158779149"></circle><circle opacity="0.95" fill="#000000" cx="31.5" cy="14.5" r="0.23067596879286695"></circle><circle opacity="0.95" fill="#000000" cx="31.5" cy="15.5" r="0.3829783307613169"></circle><circle opacity="0.95" fill="#000000" cx="31.5" cy="18.5" r="0.23224699931412895"></circle><circle opacity="0.95" fill="#000000" cx="31.5" cy="21.5" r="0.2551332090192044"></circle><circle opacity="0.95" fill="#000000" cx="31.5" cy="22.5" r="0.39476967592592593"></circle><circle opacity="0.95" fill="#000000" cx="31.5" cy="26.5" r="0.3585483753429355"></circle><circle opacity="0.95" fill="#000000" cx="31.5" cy="28.5" r="0.4742316529492455"></circle><circle opacity="0.95" fill="#000000" cx="31.5" cy="29.5" r="0.42439666923868313"></circle><circle opacity="0.95" fill="#000000" cx="31.5" cy="30.5" r="0.21421317729766803"></circle><circle opacity="0.95" fill="#000000" cx="32.5" cy="8.5" r="0.3575546339163237"></circle><circle opacity="0.95" fill="#000000" cx="32.5" cy="11.5" r="0.2764426440329218"></circle><circle opacity="0.95" fill="#000000" cx="32.5" cy="14.5" r="0.2738247385116598"></circle><circle opacity="0.95" fill="#000000" cx="32.5" cy="15.5" r="0.37968548525377227"></circle><circle opacity="0.95" fill="#000000" cx="32.5" cy="16.5" r="0.4254909336419753"></circle><circle opacity="0.95" fill="#000000" cx="32.5" cy="17.5" r="0.34196639231824416"></circle><circle opacity="0.95" fill="#000000" cx="32.5" cy="18.5" r="0.3452075402949245"></circle><circle opacity="0.95" fill="#000000" cx="32.5" cy="23.5" r="0.34112487139917697"></circle><circle opacity="0.95" fill="#000000" cx="32.5" cy="24.5" r="0.22322147205075446"></circle><circle opacity="0.95" fill="#000000" cx="32.5" cy="25.5" r="0.39370413237311386"></circle><circle opacity="0.95" fill="#000000" cx="32.5" cy="27.5" r="0.4979277906378601"></circle><circle opacity="0.95" fill="#000000" cx="32.5" cy="29.5" r="0.392173311042524"></circle><circle opacity="0.95" fill="#000000" cx="32.5" cy="31.5" r="0.32975859482167347"></circle><path d="M32.048565,-1.29480038e-15 L67.951435,1.29480038e-15 C79.0954192,-7.52316311e-16 83.1364972,1.16032014 87.2105713,3.3391588 C91.2846454,5.51799746 94.4820025,8.71535463 96.6608412,12.7894287 C98.8396799,16.8635028 100,20.9045808 100,32.048565 L100,67.951435 C100,79.0954192 98.8396799,83.1364972 96.6608412,87.2105713 C94.4820025,91.2846454 91.2846454,94.4820025 87.2105713,96.6608412 C83.1364972,98.8396799 79.0954192,100 67.951435,100 L32.048565,100 C20.9045808,100 16.8635028,98.8396799 12.7894287,96.6608412 C8.71535463,94.4820025 5.51799746,91.2846454 3.3391588,87.2105713 C1.16032014,83.1364972 5.01544207e-16,79.0954192 -8.63200256e-16,67.951435 L8.63200256e-16,32.048565 C-5.01544207e-16,20.9045808 1.16032014,16.8635028 3.3391588,12.7894287 C5.51799746,8.71535463 8.71535463,5.51799746 12.7894287,3.3391588 C16.8635028,1.16032014 20.9045808,7.52316311e-16 32.048565,-1.29480038e-15 Z" stroke="#FFF" stroke-width="15.151515151515152" fill="#FFF" transform="translate(13.2,13.2) scale(0.066,0.066)"></path><g><defs><path id="defs-path17" d="M32.048565,-1.29480038e-15 L67.951435,1.29480038e-15 C79.0954192,-7.52316311e-16 83.1364972,1.16032014 87.2105713,3.3391588 C91.2846454,5.51799746 94.4820025,8.71535463 96.6608412,12.7894287 C98.8396799,16.8635028 100,20.9045808 100,32.048565 L100,67.951435 C100,79.0954192 98.8396799,83.1364972 96.6608412,87.2105713 C94.4820025,91.2846454 91.2846454,94.4820025 87.2105713,96.6608412 C83.1364972,98.8396799 79.0954192,100 67.951435,100 L32.048565,100 C20.9045808,100 16.8635028,98.8396799 12.7894287,96.6608412 C8.71535463,94.4820025 5.51799746,91.2846454 3.3391588,87.2105713 C1.16032014,83.1364972 5.01544207e-16,79.0954192 -8.63200256e-16,67.951435 L8.63200256e-16,32.048565 C-5.01544207e-16,20.9045808 1.16032014,16.8635028 3.3391588,12.7894287 C5.51799746,8.71535463 8.71535463,5.51799746 12.7894287,3.3391588 C16.8635028,1.16032014 20.9045808,7.52316311e-16 32.048565,-1.29480038e-15 Z" fill="#FFF" transform="translate(13.2,13.2) scale(0.066,0.066)"></path>                    </defs><clipPath id="clip-path18"><use xlink:href="#defs-path17" overflow="visible"></use></clipPath><g clip-path="url(#clip-path18)"><g transform="translate(13.2,13.2) scale(0.066,0.066)"><g><rect width="100" height="100" fill="#009ce1"></rect><path d="M100,67.856c-.761-.1-4.8-.8-17.574-5.066-4.012-1.339-9.4-3.389-15.395-5.552A80.552,80.552,0,0,0,75.4,36.156H55.633v-7.1H79.848V25.094H55.633V13.258H45.749a1.68,1.68,0,0,0-1.733,1.707V25.094H19.524v3.963H44.016v7.1H23.8V40.12H63.013a69.579,69.579,0,0,1-5.65,13.763c-12.724-4.187-26.3-7.58-34.834-5.491C17.074,49.733,13.56,52.125,11.5,54.63,2.02,66.125,8.815,83.585,28.824,83.585c11.831,0,23.228-6.579,32.061-17.417C73.49,72.211,97.914,82.4,100,83.267ZM26.956,76.9c-15.6,0-20.215-12.255-12.5-18.958,2.573-2.266,7.276-3.372,9.782-3.621,9.268-.913,17.846,2.613,27.972,7.541C45.087,71.118,36.023,76.9,26.956,76.9Z" fill="#fff"></path></g></g></g></g></svg>