<svg xmlns="http://www.w3.org/2000/svg" xmlns:xlink="http://www.w3.org/1999/xlink" fill="#fff" class="Qr-item-svg" viewBox="-6.6 -6.6 46.2 46.2"><circle cx=".5" cy="9.5" r=".341" fill="#000" opacity=".95"/><circle cx=".5" cy="10.5" r=".486" fill="#000" opacity=".95"/><circle cx=".5" cy="12.5" r=".293" fill="#000" opacity=".95"/><circle cx=".5" cy="14.5" r=".166" fill="#000" opacity=".95"/><circle cx=".5" cy="18.5" r=".419" fill="#000" opacity=".95"/><circle cx=".5" cy="19.5" r=".239" fill="#000" opacity=".95"/><circle cx=".5" cy="21.5" r=".214" fill="#000" opacity=".95"/><circle cx=".5" cy="23.5" r=".398" fill="#000" opacity=".95"/><circle cx="1.5" cy="9.5" r=".277" fill="#000" opacity=".95"/><circle cx="1.5" cy="10.5" r=".289" fill="#000" opacity=".95"/><circle cx="1.5" cy="11.5" r=".228" fill="#000" opacity=".95"/><circle cx="1.5" cy="15.5" r=".212" fill="#000" opacity=".95"/><circle cx="1.5" cy="18.5" r=".195" fill="#000" opacity=".95"/><circle cx="1.5" cy="20.5" r=".382" fill="#000" opacity=".95"/><circle cx="1.5" cy="21.5" r=".183" fill="#000" opacity=".95"/><circle cx="1.5" cy="22.5" r=".408" fill="#000" opacity=".95"/><circle cx="1.5" cy="24.5" r=".331" fill="#000" opacity=".95"/><circle cx="2.5" cy="8.5" r=".33" fill="#000" opacity=".95"/><circle cx="2.5" cy="10.5" r=".397" fill="#000" opacity=".95"/><circle cx="2.5" cy="12.5" r=".214" fill="#000" opacity=".95"/><circle cx="2.5" cy="14.5" r=".458" fill="#000" opacity=".95"/><circle cx="2.5" cy="15.5" r=".301" fill="#000" opacity=".95"/><circle cx="2.5" cy="16.5" r=".171" fill="#000" opacity=".95"/><circle cx="2.5" cy="20.5" r=".371" fill="#000" opacity=".95"/><circle cx="2.5" cy="21.5" r=".26" fill="#000" opacity=".95"/><circle cx="2.5" cy="22.5" r=".341" fill="#000" opacity=".95"/><circle cx="3.5" cy="3.5" r="1.5" fill="#000"/><circle cx="3.5" cy="3.5" r="3" fill="none" stroke="#000"/><circle cx="3.5" cy="8.5" r=".209" fill="#000" opacity=".95"/><circle cx="3.5" cy="11.5" r=".414" fill="#000" opacity=".95"/><circle cx="3.5" cy="12.5" r=".194" fill="#000" opacity=".95"/><circle cx="3.5" cy="15.5" r=".446" fill="#000" opacity=".95"/><circle cx="3.5" cy="18.5" r=".233" fill="#000" opacity=".95"/><circle cx="3.5" cy="19.5" r=".204" fill="#000" opacity=".95"/><circle cx="3.5" cy="21.5" r=".217" fill="#000" opacity=".95"/><circle cx="3.5" cy="23.5" r=".19" fill="#000" opacity=".95"/><circle cx="3.5" cy="29.5" r="1.5" fill="#000"/><circle cx="3.5" cy="29.5" r="3" fill="none" stroke="#000"/><circle cx="4.5" cy="8.5" r=".176" fill="#000" opacity=".95"/><circle cx="4.5" cy="9.5" r=".332" fill="#000" opacity=".95"/><circle cx="4.5" cy="14.5" r=".425" fill="#000" opacity=".95"/><circle cx="4.5" cy="15.5" r=".25" fill="#000" opacity=".95"/><circle cx="4.5" cy="16.5" r=".26" fill="#000" opacity=".95"/><circle cx="4.5" cy="17.5" r=".408" fill="#000" opacity=".95"/><circle cx="4.5" cy="20.5" r=".23" fill="#000" opacity=".95"/><circle cx="4.5" cy="23.5" r=".475" fill="#000" opacity=".95"/><circle cx="4.5" cy="24.5" r=".279" fill="#000" opacity=".95"/><circle cx="5.5" cy="8.5" r=".256" fill="#000" opacity=".95"/><circle cx="5.5" cy="9.5" r=".448" fill="#000" opacity=".95"/><circle cx="5.5" cy="17.5" r=".177" fill="#000" opacity=".95"/><circle cx="5.5" cy="19.5" r=".467" fill="#000" opacity=".95"/><circle cx="5.5" cy="21.5" r=".317" fill="#000" opacity=".95"/><circle cx="5.5" cy="24.5" r=".242" fill="#000" opacity=".95"/><circle cx="6.5" cy="8.5" r=".4" fill="#000" opacity=".95"/><circle cx="6.5" cy="10.5" r=".4" fill="#000" opacity=".95"/><circle cx="6.5" cy="12.5" r=".4" fill="#000" opacity=".95"/><circle cx="6.5" cy="14.5" r=".4" fill="#000" opacity=".95"/><circle cx="6.5" cy="16.5" r=".4" fill="#000" opacity=".95"/><circle cx="6.5" cy="18.5" r=".4" fill="#000" opacity=".95"/><circle cx="6.5" cy="20.5" r=".4" fill="#000" opacity=".95"/><circle cx="6.5" cy="22.5" r=".4" fill="#000" opacity=".95"/><circle cx="6.5" cy="24.5" r=".4" fill="#000" opacity=".95"/><circle cx="7.5" cy="8.5" r=".333" fill="#000" opacity=".95"/><circle cx="7.5" cy="16.5" r=".223" fill="#000" opacity=".95"/><circle cx="7.5" cy="19.5" r=".278" fill="#000" opacity=".95"/><circle cx="7.5" cy="20.5" r=".329" fill="#000" opacity=".95"/><circle cx="7.5" cy="21.5" r=".306" fill="#000" opacity=".95"/><circle cx="7.5" cy="22.5" r=".425" fill="#000" opacity=".95"/><circle cx="7.5" cy="24.5" r=".258" fill="#000" opacity=".95"/><circle cx="8.5" cy=".5" r=".368" fill="#000" opacity=".95"/><circle cx="8.5" cy="2.5" r=".488" fill="#000" opacity=".95"/><circle cx="8.5" cy="3.5" r=".261" fill="#000" opacity=".95"/><circle cx="8.5" cy="4.5" r=".216" fill="#000" opacity=".95"/><circle cx="8.5" cy="5.5" r=".27" fill="#000" opacity=".95"/><circle cx="8.5" cy="6.5" r=".4" fill="#000" opacity=".95"/><circle cx="8.5" cy="9.5" r=".478" fill="#000" opacity=".95"/><circle cx="8.5" cy="10.5" r=".324" fill="#000" opacity=".95"/><circle cx="8.5" cy="11.5" r=".247" fill="#000" opacity=".95"/><circle cx="8.5" cy="13.5" r=".377" fill="#000" opacity=".95"/><circle cx="8.5" cy="14.5" r=".496" fill="#000" opacity=".95"/><circle cx="8.5" cy="16.5" r=".224" fill="#000" opacity=".95"/><circle cx="8.5" cy="17.5" r=".434" fill="#000" opacity=".95"/><circle cx="8.5" cy="19.5" r=".202" fill="#000" opacity=".95"/><circle cx="8.5" cy="22.5" r=".339" fill="#000" opacity=".95"/><circle cx="8.5" cy="23.5" r=".453" fill="#000" opacity=".95"/><circle cx="8.5" cy="24.5" r=".251" fill="#000" opacity=".95"/><circle cx="8.5" cy="26.5" r=".397" fill="#000" opacity=".95"/><circle cx="8.5" cy="27.5" r=".238" fill="#000" opacity=".95"/><circle cx="8.5" cy="28.5" r=".449" fill="#000" opacity=".95"/><circle cx="8.5" cy="29.5" r=".204" fill="#000" opacity=".95"/><circle cx="8.5" cy="30.5" r=".265" fill="#000" opacity=".95"/><circle cx="9.5" cy="11.5" r=".264" fill="#000" opacity=".95"/><circle cx="9.5" cy="12.5" r=".233" fill="#000" opacity=".95"/><circle cx="9.5" cy="13.5" r=".337" fill="#000" opacity=".95"/><circle cx="9.5" cy="17.5" r=".172" fill="#000" opacity=".95"/><circle cx="9.5" cy="18.5" r=".289" fill="#000" opacity=".95"/><circle cx="9.5" cy="19.5" r=".26" fill="#000" opacity=".95"/><circle cx="9.5" cy="20.5" r=".312" fill="#000" opacity=".95"/><circle cx="9.5" cy="22.5" r=".177" fill="#000" opacity=".95"/><circle cx="9.5" cy="23.5" r=".172" fill="#000" opacity=".95"/><circle cx="9.5" cy="26.5" r=".488" fill="#000" opacity=".95"/><circle cx="9.5" cy="27.5" r=".372" fill="#000" opacity=".95"/><circle cx="9.5" cy="29.5" r=".214" fill="#000" opacity=".95"/><circle cx="9.5" cy="30.5" r=".169" fill="#000" opacity=".95"/><circle cx="9.5" cy="32.5" r=".342" fill="#000" opacity=".95"/><circle cx="10.5" cy=".5" r=".19" fill="#000" opacity=".95"/><circle cx="10.5" cy="2.5" r=".167" fill="#000" opacity=".95"/><circle cx="10.5" cy="5.5" r=".227" fill="#000" opacity=".95"/><circle cx="10.5" cy="6.5" r=".4" fill="#000" opacity=".95"/><circle cx="10.5" cy="10.5" r=".24" fill="#000" opacity=".95"/><circle cx="10.5" cy="11.5" r=".285" fill="#000" opacity=".95"/><circle cx="10.5" cy="13.5" r=".168" fill="#000" opacity=".95"/><circle cx="10.5" cy="14.5" r=".168" fill="#000" opacity=".95"/><circle cx="10.5" cy="15.5" r=".327" fill="#000" opacity=".95"/><circle cx="10.5" cy="17.5" r=".303" fill="#000" opacity=".95"/><circle cx="10.5" cy="20.5" r=".449" fill="#000" opacity=".95"/><circle cx="10.5" cy="22.5" r=".434" fill="#000" opacity=".95"/><circle cx="10.5" cy="25.5" r=".438" fill="#000" opacity=".95"/><circle cx="10.5" cy="26.5" r=".217" fill="#000" opacity=".95"/><circle cx="10.5" cy="28.5" r=".41" fill="#000" opacity=".95"/><circle cx="10.5" cy="30.5" r=".376" fill="#000" opacity=".95"/><circle cx="10.5" cy="31.5" r=".283" fill="#000" opacity=".95"/><circle cx="11.5" cy=".5" r=".395" fill="#000" opacity=".95"/><circle cx="11.5" cy="1.5" r=".258" fill="#000" opacity=".95"/><circle cx="11.5" cy="2.5" r=".45" fill="#000" opacity=".95"/><circle cx="11.5" cy="3.5" r=".192" fill="#000" opacity=".95"/><circle cx="11.5" cy="8.5" r=".223" fill="#000" opacity=".95"/><circle cx="11.5" cy="9.5" r=".188" fill="#000" opacity=".95"/><circle cx="11.5" cy="11.5" r=".277" fill="#000" opacity=".95"/><circle cx="11.5" cy="13.5" r=".41" fill="#000" opacity=".95"/><circle cx="11.5" cy="15.5" r=".306" fill="#000" opacity=".95"/><circle cx="11.5" cy="17.5" r=".455" fill="#000" opacity=".95"/><circle cx="11.5" cy="18.5" r=".29" fill="#000" opacity=".95"/><circle cx="11.5" cy="19.5" r=".276" fill="#000" opacity=".95"/><circle cx="11.5" cy="20.5" r=".194" fill="#000" opacity=".95"/><circle cx="11.5" cy="24.5" r=".336" fill="#000" opacity=".95"/><circle cx="11.5" cy="25.5" r=".235" fill="#000" opacity=".95"/><circle cx="11.5" cy="26.5" r=".305" fill="#000" opacity=".95"/><circle cx="11.5" cy="28.5" r=".353" fill="#000" opacity=".95"/><circle cx="11.5" cy="29.5" r=".323" fill="#000" opacity=".95"/><circle cx="11.5" cy="30.5" r=".257" fill="#000" opacity=".95"/><circle cx="11.5" cy="31.5" r=".482" fill="#000" opacity=".95"/><circle cx="11.5" cy="32.5" r=".346" fill="#000" opacity=".95"/><circle cx="12.5" cy=".5" r=".189" fill="#000" opacity=".95"/><circle cx="12.5" cy="5.5" r=".191" fill="#000" opacity=".95"/><circle cx="12.5" cy="6.5" r=".4" fill="#000" opacity=".95"/><circle cx="12.5" cy="7.5" r=".442" fill="#000" opacity=".95"/><circle cx="12.5" cy="9.5" r=".242" fill="#000" opacity=".95"/><circle cx="12.5" cy="12.5" r=".289" fill="#000" opacity=".95"/><circle cx="12.5" cy="14.5" r=".417" fill="#000" opacity=".95"/><circle cx="12.5" cy="16.5" r=".219" fill="#000" opacity=".95"/><circle cx="12.5" cy="19.5" r=".248" fill="#000" opacity=".95"/><circle cx="12.5" cy="20.5" r=".409" fill="#000" opacity=".95"/><circle cx="12.5" cy="21.5" r=".261" fill="#000" opacity=".95"/><circle cx="12.5" cy="22.5" r=".206" fill="#000" opacity=".95"/><circle cx="12.5" cy="25.5" r=".224" fill="#000" opacity=".95"/><circle cx="12.5" cy="27.5" r=".172" fill="#000" opacity=".95"/><circle cx="12.5" cy="28.5" r=".302" fill="#000" opacity=".95"/><circle cx="12.5" cy="29.5" r=".336" fill="#000" opacity=".95"/><circle cx="13.5" cy=".5" r=".426" fill="#000" opacity=".95"/><circle cx="13.5" cy="1.5" r=".342" fill="#000" opacity=".95"/><circle cx="13.5" cy="2.5" r=".214" fill="#000" opacity=".95"/><circle cx="13.5" cy="3.5" r=".493" fill="#000" opacity=".95"/><circle cx="13.5" cy="5.5" r=".465" fill="#000" opacity=".95"/><circle cx="13.5" cy="9.5" r=".334" fill="#000" opacity=".95"/><circle cx="13.5" cy="10.5" r=".178" fill="#000" opacity=".95"/><circle cx="13.5" cy="11.5" r=".476" fill="#000" opacity=".95"/><circle cx="13.5" cy="12.5" r=".499" fill="#000" opacity=".95"/><circle cx="13.5" cy="13.5" r=".291" fill="#000" opacity=".95"/><circle cx="13.5" cy="15.5" r=".178" fill="#000" opacity=".95"/><circle cx="13.5" cy="18.5" r=".18" fill="#000" opacity=".95"/><circle cx="13.5" cy="21.5" r=".3" fill="#000" opacity=".95"/><circle cx="13.5" cy="23.5" r=".383" fill="#000" opacity=".95"/><circle cx="13.5" cy="24.5" r=".185" fill="#000" opacity=".95"/><circle cx="13.5" cy="25.5" r=".346" fill="#000" opacity=".95"/><circle cx="13.5" cy="26.5" r=".223" fill="#000" opacity=".95"/><circle cx="13.5" cy="31.5" r=".32" fill="#000" opacity=".95"/><circle cx="13.5" cy="32.5" r=".232" fill="#000" opacity=".95"/><circle cx="14.5" cy="3.5" r=".175" fill="#000" opacity=".95"/><circle cx="14.5" cy="4.5" r=".39" fill="#000" opacity=".95"/><circle cx="14.5" cy="5.5" r=".435" fill="#000" opacity=".95"/><circle cx="14.5" cy="6.5" r=".4" fill="#000" opacity=".95"/><circle cx="14.5" cy="8.5" r=".377" fill="#000" opacity=".95"/><circle cx="14.5" cy="15.5" r=".197" fill="#000" opacity=".95"/><circle cx="14.5" cy="16.5" r=".422" fill="#000" opacity=".95"/><circle cx="14.5" cy="17.5" r=".299" fill="#000" opacity=".95"/><circle cx="14.5" cy="20.5" r=".219" fill="#000" opacity=".95"/><circle cx="14.5" cy="21.5" r=".334" fill="#000" opacity=".95"/><circle cx="14.5" cy="25.5" r=".416" fill="#000" opacity=".95"/><circle cx="14.5" cy="26.5" r=".257" fill="#000" opacity=".95"/><circle cx="14.5" cy="27.5" r=".311" fill="#000" opacity=".95"/><circle cx="14.5" cy="28.5" r=".197" fill="#000" opacity=".95"/><circle cx="14.5" cy="30.5" r=".454" fill="#000" opacity=".95"/><circle cx="14.5" cy="31.5" r=".492" fill="#000" opacity=".95"/><circle cx="15.5" cy=".5" r=".452" fill="#000" opacity=".95"/><circle cx="15.5" cy="1.5" r=".277" fill="#000" opacity=".95"/><circle cx="15.5" cy="2.5" r=".346" fill="#000" opacity=".95"/><circle cx="15.5" cy="7.5" r=".315" fill="#000" opacity=".95"/><circle cx="15.5" cy="8.5" r=".202" fill="#000" opacity=".95"/><circle cx="15.5" cy="9.5" r=".348" fill="#000" opacity=".95"/><circle cx="15.5" cy="10.5" r=".261" fill="#000" opacity=".95"/><circle cx="15.5" cy="11.5" r=".368" fill="#000" opacity=".95"/><circle cx="15.5" cy="14.5" r=".303" fill="#000" opacity=".95"/><circle cx="15.5" cy="15.5" r=".43" fill="#000" opacity=".95"/><circle cx="15.5" cy="18.5" r=".245" fill="#000" opacity=".95"/><circle cx="15.5" cy="21.5" r=".35" fill="#000" opacity=".95"/><circle cx="15.5" cy="24.5" r=".29" fill="#000" opacity=".95"/><circle cx="15.5" cy="25.5" r=".307" fill="#000" opacity=".95"/><circle cx="15.5" cy="26.5" r=".294" fill="#000" opacity=".95"/><circle cx="15.5" cy="27.5" r=".318" fill="#000" opacity=".95"/><circle cx="15.5" cy="29.5" r=".359" fill="#000" opacity=".95"/><circle cx="15.5" cy="30.5" r=".275" fill="#000" opacity=".95"/><circle cx="16.5" cy=".5" r=".317" fill="#000" opacity=".95"/><circle cx="16.5" cy="6.5" r=".4" fill="#000" opacity=".95"/><circle cx="16.5" cy="10.5" r=".206" fill="#000" opacity=".95"/><circle cx="16.5" cy="13.5" r=".431" fill="#000" opacity=".95"/><circle cx="16.5" cy="15.5" r=".427" fill="#000" opacity=".95"/><circle cx="16.5" cy="16.5" r=".322" fill="#000" opacity=".95"/><circle cx="16.5" cy="17.5" r=".233" fill="#000" opacity=".95"/><circle cx="16.5" cy="22.5" r=".452" fill="#000" opacity=".95"/><circle cx="16.5" cy="24.5" r=".176" fill="#000" opacity=".95"/><circle cx="16.5" cy="25.5" r=".491" fill="#000" opacity=".95"/><circle cx="16.5" cy="27.5" r=".197" fill="#000" opacity=".95"/><circle cx="16.5" cy="28.5" r=".244" fill="#000" opacity=".95"/><circle cx="16.5" cy="29.5" r=".338" fill="#000" opacity=".95"/><circle cx="16.5" cy="32.5" r=".472" fill="#000" opacity=".95"/><circle cx="17.5" cy=".5" r=".329" fill="#000" opacity=".95"/><circle cx="17.5" cy="5.5" r=".249" fill="#000" opacity=".95"/><circle cx="17.5" cy="7.5" r=".411" fill="#000" opacity=".95"/><circle cx="17.5" cy="8.5" r=".237" fill="#000" opacity=".95"/><circle cx="17.5" cy="12.5" r=".365" fill="#000" opacity=".95"/><circle cx="17.5" cy="13.5" r=".489" fill="#000" opacity=".95"/><circle cx="17.5" cy="18.5" r=".442" fill="#000" opacity=".95"/><circle cx="17.5" cy="19.5" r=".489" fill="#000" opacity=".95"/><circle cx="17.5" cy="20.5" r=".176" fill="#000" opacity=".95"/><circle cx="17.5" cy="21.5" r=".413" fill="#000" opacity=".95"/><circle cx="17.5" cy="23.5" r=".426" fill="#000" opacity=".95"/><circle cx="17.5" cy="25.5" r=".28" fill="#000" opacity=".95"/><circle cx="17.5" cy="26.5" r=".291" fill="#000" opacity=".95"/><circle cx="17.5" cy="27.5" r=".316" fill="#000" opacity=".95"/><circle cx="17.5" cy="29.5" r=".272" fill="#000" opacity=".95"/><circle cx="17.5" cy="30.5" r=".214" fill="#000" opacity=".95"/><circle cx="17.5" cy="31.5" r=".298" fill="#000" opacity=".95"/><circle cx="17.5" cy="32.5" r=".291" fill="#000" opacity=".95"/><circle cx="18.5" cy="3.5" r=".323" fill="#000" opacity=".95"/><circle cx="18.5" cy="4.5" r=".177" fill="#000" opacity=".95"/><circle cx="18.5" cy="5.5" r=".477" fill="#000" opacity=".95"/><circle cx="18.5" cy="6.5" r=".4" fill="#000" opacity=".95"/><circle cx="18.5" cy="7.5" r=".422" fill="#000" opacity=".95"/><circle cx="18.5" cy="8.5" r=".427" fill="#000" opacity=".95"/><circle cx="18.5" cy="10.5" r=".299" fill="#000" opacity=".95"/><circle cx="18.5" cy="11.5" r=".315" fill="#000" opacity=".95"/><circle cx="18.5" cy="13.5" r=".183" fill="#000" opacity=".95"/><circle cx="18.5" cy="14.5" r=".232" fill="#000" opacity=".95"/><circle cx="18.5" cy="15.5" r=".477" fill="#000" opacity=".95"/><circle cx="18.5" cy="16.5" r=".255" fill="#000" opacity=".95"/><circle cx="18.5" cy="18.5" r=".415" fill="#000" opacity=".95"/><circle cx="18.5" cy="20.5" r=".378" fill="#000" opacity=".95"/><circle cx="18.5" cy="21.5" r=".448" fill="#000" opacity=".95"/><circle cx="18.5" cy="24.5" r=".318" fill="#000" opacity=".95"/><circle cx="18.5" cy="25.5" r=".492" fill="#000" opacity=".95"/><circle cx="18.5" cy="27.5" r=".23" fill="#000" opacity=".95"/><circle cx="18.5" cy="28.5" r=".417" fill="#000" opacity=".95"/><circle cx="18.5" cy="30.5" r=".289" fill="#000" opacity=".95"/><circle cx="19.5" cy=".5" r=".411" fill="#000" opacity=".95"/><circle cx="19.5" cy="1.5" r=".179" fill="#000" opacity=".95"/><circle cx="19.5" cy="2.5" r=".244" fill="#000" opacity=".95"/><circle cx="19.5" cy="3.5" r=".461" fill="#000" opacity=".95"/><circle cx="19.5" cy="5.5" r=".415" fill="#000" opacity=".95"/><circle cx="19.5" cy="8.5" r=".495" fill="#000" opacity=".95"/><circle cx="19.5" cy="9.5" r=".185" fill="#000" opacity=".95"/><circle cx="19.5" cy="10.5" r=".26" fill="#000" opacity=".95"/><circle cx="19.5" cy="12.5" r=".178" fill="#000" opacity=".95"/><circle cx="19.5" cy="14.5" r=".392" fill="#000" opacity=".95"/><circle cx="19.5" cy="15.5" r=".187" fill="#000" opacity=".95"/><circle cx="19.5" cy="16.5" r=".437" fill="#000" opacity=".95"/><circle cx="19.5" cy="19.5" r=".217" fill="#000" opacity=".95"/><circle cx="19.5" cy="21.5" r=".337" fill="#000" opacity=".95"/><circle cx="19.5" cy="22.5" r=".407" fill="#000" opacity=".95"/><circle cx="19.5" cy="23.5" r=".469" fill="#000" opacity=".95"/><circle cx="19.5" cy="26.5" r=".179" fill="#000" opacity=".95"/><circle cx="19.5" cy="27.5" r=".227" fill="#000" opacity=".95"/><circle cx="19.5" cy="28.5" r=".282" fill="#000" opacity=".95"/><circle cx="19.5" cy="29.5" r=".188" fill="#000" opacity=".95"/><circle cx="19.5" cy="30.5" r=".373" fill="#000" opacity=".95"/><circle cx="19.5" cy="31.5" r=".468" fill="#000" opacity=".95"/><circle cx="20.5" cy=".5" r=".169" fill="#000" opacity=".95"/><circle cx="20.5" cy="1.5" r=".312" fill="#000" opacity=".95"/><circle cx="20.5" cy="3.5" r=".494" fill="#000" opacity=".95"/><circle cx="20.5" cy="4.5" r=".26" fill="#000" opacity=".95"/><circle cx="20.5" cy="6.5" r=".4" fill="#000" opacity=".95"/><circle cx="20.5" cy="8.5" r=".186" fill="#000" opacity=".95"/><circle cx="20.5" cy="9.5" r=".166" fill="#000" opacity=".95"/><circle cx="20.5" cy="10.5" r=".266" fill="#000" opacity=".95"/><circle cx="20.5" cy="11.5" r=".468" fill="#000" opacity=".95"/><circle cx="20.5" cy="13.5" r=".293" fill="#000" opacity=".95"/><circle cx="20.5" cy="14.5" r=".328" fill="#000" opacity=".95"/><circle cx="20.5" cy="15.5" r=".294" fill="#000" opacity=".95"/><circle cx="20.5" cy="18.5" r=".345" fill="#000" opacity=".95"/><circle cx="20.5" cy="21.5" r=".249" fill="#000" opacity=".95"/><circle cx="20.5" cy="23.5" r=".473" fill="#000" opacity=".95"/><circle cx="20.5" cy="27.5" r=".461" fill="#000" opacity=".95"/><circle cx="20.5" cy="28.5" r=".17" fill="#000" opacity=".95"/><circle cx="20.5" cy="29.5" r=".474" fill="#000" opacity=".95"/><circle cx="21.5" cy=".5" r=".446" fill="#000" opacity=".95"/><circle cx="21.5" cy="1.5" r=".229" fill="#000" opacity=".95"/><circle cx="21.5" cy="2.5" r=".436" fill="#000" opacity=".95"/><circle cx="21.5" cy="8.5" r=".44" fill="#000" opacity=".95"/><circle cx="21.5" cy="11.5" r=".232" fill="#000" opacity=".95"/><circle cx="21.5" cy="12.5" r=".166" fill="#000" opacity=".95"/><circle cx="21.5" cy="13.5" r=".247" fill="#000" opacity=".95"/><circle cx="21.5" cy="15.5" r=".318" fill="#000" opacity=".95"/><circle cx="21.5" cy="16.5" r=".472" fill="#000" opacity=".95"/><circle cx="21.5" cy="17.5" r=".341" fill="#000" opacity=".95"/><circle cx="21.5" cy="20.5" r=".291" fill="#000" opacity=".95"/><circle cx="21.5" cy="21.5" r=".488" fill="#000" opacity=".95"/><circle cx="21.5" cy="22.5" r=".193" fill="#000" opacity=".95"/><circle cx="21.5" cy="23.5" r=".292" fill="#000" opacity=".95"/><circle cx="21.5" cy="25.5" r=".355" fill="#000" opacity=".95"/><circle cx="21.5" cy="26.5" r=".277" fill="#000" opacity=".95"/><circle cx="21.5" cy="32.5" r=".459" fill="#000" opacity=".95"/><circle cx="22.5" cy=".5" r=".212" fill="#000" opacity=".95"/><circle cx="22.5" cy="2.5" r=".397" fill="#000" opacity=".95"/><circle cx="22.5" cy="4.5" r=".262" fill="#000" opacity=".95"/><circle cx="22.5" cy="5.5" r=".198" fill="#000" opacity=".95"/><circle cx="22.5" cy="6.5" r=".4" fill="#000" opacity=".95"/><circle cx="22.5" cy="13.5" r=".358" fill="#000" opacity=".95"/><circle cx="22.5" cy="17.5" r=".176" fill="#000" opacity=".95"/><circle cx="22.5" cy="18.5" r=".453" fill="#000" opacity=".95"/><circle cx="22.5" cy="19.5" r=".3" fill="#000" opacity=".95"/><circle cx="22.5" cy="21.5" r=".341" fill="#000" opacity=".95"/><circle cx="22.5" cy="27.5" r=".447" fill="#000" opacity=".95"/><circle cx="22.5" cy="28.5" r=".361" fill="#000" opacity=".95"/><circle cx="22.5" cy="29.5" r=".226" fill="#000" opacity=".95"/><circle cx="22.5" cy="30.5" r=".319" fill="#000" opacity=".95"/><circle cx="22.5" cy="31.5" r=".348" fill="#000" opacity=".95"/><circle cx="23.5" cy=".5" r=".306" fill="#000" opacity=".95"/><circle cx="23.5" cy="2.5" r=".209" fill="#000" opacity=".95"/><circle cx="23.5" cy="3.5" r=".399" fill="#000" opacity=".95"/><circle cx="23.5" cy="5.5" r=".384" fill="#000" opacity=".95"/><circle cx="23.5" cy="8.5" r=".257" fill="#000" opacity=".95"/><circle cx="23.5" cy="10.5" r=".319" fill="#000" opacity=".95"/><circle cx="23.5" cy="13.5" r=".267" fill="#000" opacity=".95"/><circle cx="23.5" cy="16.5" r=".266" fill="#000" opacity=".95"/><circle cx="23.5" cy="19.5" r=".248" fill="#000" opacity=".95"/><circle cx="23.5" cy="20.5" r=".428" fill="#000" opacity=".95"/><circle cx="23.5" cy="21.5" r=".377" fill="#000" opacity=".95"/><circle cx="23.5" cy="22.5" r=".324" fill="#000" opacity=".95"/><circle cx="23.5" cy="23.5" r=".337" fill="#000" opacity=".95"/><circle cx="23.5" cy="24.5" r=".394" fill="#000" opacity=".95"/><circle cx="23.5" cy="25.5" r=".354" fill="#000" opacity=".95"/><circle cx="23.5" cy="27.5" r=".468" fill="#000" opacity=".95"/><circle cx="23.5" cy="28.5" r=".457" fill="#000" opacity=".95"/><circle cx="23.5" cy="29.5" r=".476" fill="#000" opacity=".95"/><circle cx="23.5" cy="30.5" r=".292" fill="#000" opacity=".95"/><circle cx="23.5" cy="31.5" r=".371" fill="#000" opacity=".95"/><circle cx="24.5" cy=".5" r=".494" fill="#000" opacity=".95"/><circle cx="24.5" cy="2.5" r=".282" fill="#000" opacity=".95"/><circle cx="24.5" cy="3.5" r=".274" fill="#000" opacity=".95"/><circle cx="24.5" cy="6.5" r=".4" fill="#000" opacity=".95"/><circle cx="24.5" cy="8.5" r=".214" fill="#000" opacity=".95"/><circle cx="24.5" cy="10.5" r=".244" fill="#000" opacity=".95"/><circle cx="24.5" cy="11.5" r=".307" fill="#000" opacity=".95"/><circle cx="24.5" cy="14.5" r=".445" fill="#000" opacity=".95"/><circle cx="24.5" cy="16.5" r=".316" fill="#000" opacity=".95"/><circle cx="24.5" cy="17.5" r=".274" fill="#000" opacity=".95"/><circle cx="24.5" cy="19.5" r=".322" fill="#000" opacity=".95"/><circle cx="24.5" cy="22.5" r=".304" fill="#000" opacity=".95"/><circle cx="24.5" cy="24.5" r=".4" fill="#000" opacity=".95"/><circle cx="24.5" cy="25.5" r=".4" fill="#000" opacity=".95"/><circle cx="24.5" cy="26.5" r=".4" fill="#000" opacity=".95"/><circle cx="24.5" cy="27.5" r=".4" fill="#000" opacity=".95"/><circle cx="24.5" cy="28.5" r=".4" fill="#000" opacity=".95"/><circle cx="24.5" cy="31.5" r=".314" fill="#000" opacity=".95"/><circle cx="24.5" cy="32.5" r=".318" fill="#000" opacity=".95"/><circle cx="25.5" cy="8.5" r=".347" fill="#000" opacity=".95"/><circle cx="25.5" cy="9.5" r=".233" fill="#000" opacity=".95"/><circle cx="25.5" cy="12.5" r=".24" fill="#000" opacity=".95"/><circle cx="25.5" cy="13.5" r=".25" fill="#000" opacity=".95"/><circle cx="25.5" cy="14.5" r=".169" fill="#000" opacity=".95"/><circle cx="25.5" cy="17.5" r=".226" fill="#000" opacity=".95"/><circle cx="25.5" cy="19.5" r=".487" fill="#000" opacity=".95"/><circle cx="25.5" cy="20.5" r=".263" fill="#000" opacity=".95"/><circle cx="25.5" cy="22.5" r=".416" fill="#000" opacity=".95"/><circle cx="25.5" cy="24.5" r=".4" fill="#000" opacity=".95"/><circle cx="25.5" cy="28.5" r=".4" fill="#000" opacity=".95"/><circle cx="25.5" cy="30.5" r=".193" fill="#000" opacity=".95"/><circle cx="25.5" cy="31.5" r=".319" fill="#000" opacity=".95"/><circle cx="25.5" cy="32.5" r=".279" fill="#000" opacity=".95"/><circle cx="26.5" cy="10.5" r=".177" fill="#000" opacity=".95"/><circle cx="26.5" cy="15.5" r=".477" fill="#000" opacity=".95"/><circle cx="26.5" cy="16.5" r=".291" fill="#000" opacity=".95"/><circle cx="26.5" cy="17.5" r=".244" fill="#000" opacity=".95"/><circle cx="26.5" cy="22.5" r=".206" fill="#000" opacity=".95"/><circle cx="26.5" cy="23.5" r=".255" fill="#000" opacity=".95"/><circle cx="26.5" cy="24.5" r=".4" fill="#000" opacity=".95"/><circle cx="26.5" cy="26.5" r=".4" fill="#000" opacity=".95"/><circle cx="26.5" cy="28.5" r=".4" fill="#000" opacity=".95"/><circle cx="26.5" cy="30.5" r=".199" fill="#000" opacity=".95"/><circle cx="26.5" cy="31.5" r=".315" fill="#000" opacity=".95"/><circle cx="27.5" cy="8.5" r=".311" fill="#000" opacity=".95"/><circle cx="27.5" cy="10.5" r=".181" fill="#000" opacity=".95"/><circle cx="27.5" cy="12.5" r=".275" fill="#000" opacity=".95"/><circle cx="27.5" cy="14.5" r=".265" fill="#000" opacity=".95"/><circle cx="27.5" cy="15.5" r=".329" fill="#000" opacity=".95"/><circle cx="27.5" cy="17.5" r=".225" fill="#000" opacity=".95"/><circle cx="27.5" cy="18.5" r=".255" fill="#000" opacity=".95"/><circle cx="27.5" cy="19.5" r=".449" fill="#000" opacity=".95"/><circle cx="27.5" cy="20.5" r=".304" fill="#000" opacity=".95"/><circle cx="27.5" cy="24.5" r=".4" fill="#000" opacity=".95"/><circle cx="27.5" cy="28.5" r=".4" fill="#000" opacity=".95"/><circle cx="27.5" cy="29.5" r=".421" fill="#000" opacity=".95"/><circle cx="27.5" cy="30.5" r=".345" fill="#000" opacity=".95"/><circle cx="27.5" cy="31.5" r=".317" fill="#000" opacity=".95"/><circle cx="27.5" cy="32.5" r=".232" fill="#000" opacity=".95"/><circle cx="28.5" cy="8.5" r=".491" fill="#000" opacity=".95"/><circle cx="28.5" cy="10.5" r=".404" fill="#000" opacity=".95"/><circle cx="28.5" cy="15.5" r=".499" fill="#000" opacity=".95"/><circle cx="28.5" cy="16.5" r=".357" fill="#000" opacity=".95"/><circle cx="28.5" cy="19.5" r=".37" fill="#000" opacity=".95"/><circle cx="28.5" cy="20.5" r=".355" fill="#000" opacity=".95"/><circle cx="28.5" cy="21.5" r=".418" fill="#000" opacity=".95"/><circle cx="28.5" cy="22.5" r=".353" fill="#000" opacity=".95"/><circle cx="28.5" cy="24.5" r=".4" fill="#000" opacity=".95"/><circle cx="28.5" cy="25.5" r=".4" fill="#000" opacity=".95"/><circle cx="28.5" cy="26.5" r=".4" fill="#000" opacity=".95"/><circle cx="28.5" cy="27.5" r=".4" fill="#000" opacity=".95"/><circle cx="28.5" cy="28.5" r=".4" fill="#000" opacity=".95"/><circle cx="28.5" cy="29.5" r=".276" fill="#000" opacity=".95"/><circle cx="28.5" cy="32.5" r=".478" fill="#000" opacity=".95"/><circle cx="29.5" cy="3.5" r="1.5" fill="#000"/><circle cx="29.5" cy="3.5" r="3" fill="none" stroke="#000"/><circle cx="29.5" cy="8.5" r=".493" fill="#000" opacity=".95"/><circle cx="29.5" cy="9.5" r=".401" fill="#000" opacity=".95"/><circle cx="29.5" cy="14.5" r=".342" fill="#000" opacity=".95"/><circle cx="29.5" cy="15.5" r=".261" fill="#000" opacity=".95"/><circle cx="29.5" cy="17.5" r=".199" fill="#000" opacity=".95"/><circle cx="29.5" cy="18.5" r=".484" fill="#000" opacity=".95"/><circle cx="29.5" cy="25.5" r=".465" fill="#000" opacity=".95"/><circle cx="29.5" cy="28.5" r=".48" fill="#000" opacity=".95"/><circle cx="29.5" cy="29.5" r=".375" fill="#000" opacity=".95"/><circle cx="29.5" cy="32.5" r=".24" fill="#000" opacity=".95"/><circle cx="30.5" cy="8.5" r=".379" fill="#000" opacity=".95"/><circle cx="30.5" cy="9.5" r=".488" fill="#000" opacity=".95"/><circle cx="30.5" cy="12.5" r=".396" fill="#000" opacity=".95"/><circle cx="30.5" cy="13.5" r=".371" fill="#000" opacity=".95"/><circle cx="30.5" cy="15.5" r=".293" fill="#000" opacity=".95"/><circle cx="30.5" cy="16.5" r=".403" fill="#000" opacity=".95"/><circle cx="30.5" cy="18.5" r=".259" fill="#000" opacity=".95"/><circle cx="30.5" cy="20.5" r=".264" fill="#000" opacity=".95"/><circle cx="30.5" cy="21.5" r=".399" fill="#000" opacity=".95"/><circle cx="30.5" cy="24.5" r=".184" fill="#000" opacity=".95"/><circle cx="30.5" cy="25.5" r=".207" fill="#000" opacity=".95"/><circle cx="30.5" cy="26.5" r=".19" fill="#000" opacity=".95"/><circle cx="30.5" cy="27.5" r=".284" fill="#000" opacity=".95"/><circle cx="31.5" cy="9.5" r=".261" fill="#000" opacity=".95"/><circle cx="31.5" cy="11.5" r=".249" fill="#000" opacity=".95"/><circle cx="31.5" cy="12.5" r=".366" fill="#000" opacity=".95"/><circle cx="31.5" cy="14.5" r=".231" fill="#000" opacity=".95"/><circle cx="31.5" cy="15.5" r=".383" fill="#000" opacity=".95"/><circle cx="31.5" cy="18.5" r=".232" fill="#000" opacity=".95"/><circle cx="31.5" cy="21.5" r=".255" fill="#000" opacity=".95"/><circle cx="31.5" cy="22.5" r=".395" fill="#000" opacity=".95"/><circle cx="31.5" cy="26.5" r=".359" fill="#000" opacity=".95"/><circle cx="31.5" cy="28.5" r=".474" fill="#000" opacity=".95"/><circle cx="31.5" cy="29.5" r=".424" fill="#000" opacity=".95"/><circle cx="31.5" cy="30.5" r=".214" fill="#000" opacity=".95"/><circle cx="32.5" cy="8.5" r=".358" fill="#000" opacity=".95"/><circle cx="32.5" cy="11.5" r=".276" fill="#000" opacity=".95"/><circle cx="32.5" cy="14.5" r=".274" fill="#000" opacity=".95"/><circle cx="32.5" cy="15.5" r=".38" fill="#000" opacity=".95"/><circle cx="32.5" cy="16.5" r=".425" fill="#000" opacity=".95"/><circle cx="32.5" cy="17.5" r=".342" fill="#000" opacity=".95"/><circle cx="32.5" cy="18.5" r=".345" fill="#000" opacity=".95"/><circle cx="32.5" cy="23.5" r=".341" fill="#000" opacity=".95"/><circle cx="32.5" cy="24.5" r=".223" fill="#000" opacity=".95"/><circle cx="32.5" cy="25.5" r=".394" fill="#000" opacity=".95"/><circle cx="32.5" cy="27.5" r=".498" fill="#000" opacity=".95"/><circle cx="32.5" cy="29.5" r=".392" fill="#000" opacity=".95"/><circle cx="32.5" cy="31.5" r=".33" fill="#000" opacity=".95"/><path fill="#FFF" stroke="#FFF" d="M15.315 13.2h2.37c.735 0 1.002.077 1.27.22a1.5 1.5 0 0 1 .625.624c.143.269.22.536.22 1.271v2.37c0 .735-.077 1.002-.22 1.27a1.5 1.5 0 0 1-.624.625c-.269.143-.536.22-1.271.22h-2.37c-.735 0-1.002-.077-1.27-.22a1.5 1.5 0 0 1-.625-.624c-.143-.269-.22-.536-.22-1.271v-2.37c0-.735.077-1.002.22-1.27a1.5 1.5 0 0 1 .624-.625c.269-.143.536-.22 1.271-.22Z"/><defs><path id="a" fill="#FFF" d="M32.049 0H67.95c11.144 0 15.185 1.16 19.26 3.34 4.074 2.178 7.271 5.375 9.45 9.45S100 20.904 100 32.048V67.95c0 11.144-1.16 15.185-3.34 19.26-2.178 4.074-5.375 7.271-9.45 9.45S79.096 100 67.952 100H32.05c-11.144 0-15.185-1.16-19.26-3.34-4.074-2.178-7.271-5.375-9.45-9.45S0 79.096 0 67.952V32.05c0-11.144 1.16-15.185 3.34-19.26 2.178-4.074 5.375-7.271 9.45-9.45S20.904 0 32.048 0" transform="translate(13.2 13.2)scale(.066)"/></defs><clipPath id="b"><use xlink:href="#a" overflow="visible"/></clipPath><g clip-path="url(#b)"><path fill="#009ce1" d="M13.2 13.2h6.6v6.6h-6.6z"/><path d="M19.8 17.678c-.05-.006-.317-.052-1.16-.334-.265-.088-.62-.224-1.016-.366a5.3 5.3 0 0 0 .552-1.392h-1.304v-.468h1.598v-.262h-1.598v-.781h-.653a.11.11 0 0 0-.114.113v.668H14.49v.262h1.616v.468h-1.334v.262h2.588a4.6 4.6 0 0 1-.373.908c-.84-.276-1.736-.5-2.3-.362-.36.088-.591.246-.727.412-.626.758-.177 1.91 1.143 1.91.781 0 1.533-.434 2.116-1.149.832.399 2.444 1.071 2.582 1.129Zm-4.82.597c-1.03 0-1.335-.808-.826-1.25.17-.15.48-.223.646-.24.611-.06 1.178.173 1.846.498-.47.61-1.068.992-1.667.992"/></g></svg>